<?xml version="1.0" standalone="no"?>
<!DOCTYPE svg PUBLIC "-//W3C//DTD SVG 20010904//EN"
 "http://www.w3.org/TR/2001/REC-SVG-20010904/DTD/svg10.dtd">
<svg version="1.0" xmlns="http://www.w3.org/2000/svg"
 width="72.000000pt" height="72.000000pt" viewBox="0 0 72.000000 72.000000"
 preserveAspectRatio="xMidYMid meet">
<metadata>
Created by potrace 1.11, written by Peter Selinger 2001-2013
</metadata>
<g transform="translate(0.000000,72.000000) scale(0.100000,-0.100000)"
fill="#000000" stroke="none">
<path d="M327 707 c3 -5 0 -7 -8 -5 -8 3 -20 -2 -27 -11 -11 -14 -11 -14 -6 4
5 19 5 19 -9 3 -8 -10 -17 -15 -20 -12 -17 18 -143 -66 -167 -110 -10 -20 -16
-23 -23 -14 -6 9 -7 4 -4 -14 3 -20 0 -25 -11 -20 -9 3 -13 1 -9 -5 4 -6 3
-13 -2 -15 -4 -1 -12 -14 -16 -27 -5 -17 -4 -21 5 -16 9 6 9 3 2 -11 -6 -11
-12 -23 -14 -29 -1 -5 -7 -9 -11 -7 -4 1 -3 -6 2 -16 7 -13 7 -22 -1 -30 -9
-9 -8 -12 2 -12 13 0 13 -2 0 -11 -11 -8 -12 -12 -3 -15 8 -4 9 -13 3 -30 -8
-19 -6 -26 5 -30 8 -4 15 -14 15 -24 0 -10 6 -23 14 -30 8 -6 12 -18 10 -25
-3 -7 4 -23 15 -34 12 -12 21 -26 21 -32 0 -5 4 -7 10 -4 5 3 10 1 10 -4 0
-14 37 -51 50 -51 6 0 10 -4 10 -10 0 -5 9 -10 19 -10 11 0 23 -5 27 -12 5 -7
3 -8 -6 -3 -8 5 -11 4 -6 -3 3 -6 15 -9 26 -7 11 2 20 0 20 -5 0 -5 16 -8 36
-6 19 1 37 -1 39 -4 5 -8 94 -1 115 9 8 4 25 6 37 6 12 -1 21 3 20 8 -1 6 4
11 11 12 7 0 17 7 22 15 5 8 10 11 10 6 0 -5 7 -3 15 4 8 7 15 9 15 4 0 -5 9
5 20 21 11 17 20 26 20 20 0 -5 11 3 25 19 14 16 25 35 25 43 0 7 5 13 10 13
6 0 10 7 10 15 0 8 6 15 13 15 8 0 7 4 -3 10 -12 8 -12 10 -1 10 8 0 11 3 8 7
-4 3 1 12 11 20 9 8 11 12 5 8 -7 -3 -13 -1 -13 4 0 6 5 11 10 11 6 0 10 12
10 26 0 17 -4 23 -12 18 -10 -6 -10 -4 -2 7 15 19 11 94 -7 115 -9 12 -10 15
-1 10 7 -4 4 8 -7 27 -11 19 -17 38 -14 41 4 3 -1 6 -11 6 -9 0 -15 4 -11 9 3
6 -8 24 -25 41 -16 17 -30 28 -30 24 0 -4 -8 3 -19 14 -10 12 -21 19 -25 15
-3 -3 -6 -1 -6 5 0 12 -55 42 -77 42 -7 0 -13 4 -13 9 0 10 -43 6 -62 -5 -10
-6 -10 -4 0 9 12 14 11 16 -7 12 -12 -2 -26 -7 -33 -11 -6 -4 -8 -3 -5 2 3 5
-3 10 -13 10 -10 0 -16 -4 -13 -9z"/>
</g>
</svg>
